# xmcd CD database file
#
# Track frame offsets:
#	150
#	20537
#	43750
#	64683
#	99281
#	146460
#	169526
#	185499
#	209042
#	253201
#	271147
#	306881
#	328558
#
# Disc length: 4657 seconds
#
# Revision: 0
# Processed by: cddbd v1.5.2PL0 Copyright (c) Steve Scherf et al.
# Submitted via: CDex 1.51
#
DISCID=b9122f0d
DTITLE=Various Artist - Road Tested Vol 1
DYEAR=2000
DGENRE=Blues
TTITLE0=Randy Chortkoff-Parker's Grind
TTITLE1=Frank Goldwasser Ft Leon Blue-The 12 Year Old Boy
TTITLE2=Mitch Kashmar Ft Rusty Zinn-Stoop Down Baby
TTITLE3=Lynwood Slim Ft Kid Ramos-Act Like You Love Me
TTITLE4=Hollywood Blues Flames Ft Rick Holstrom-I Got My Eyes On You
TTITLE5=Kid Ramos-Johnny Cochino
TTITLE6=Johnny Dyer-Keep To Yourself
TTITLE7=Rusty Zinn-Lizabeth
TTITLE8=Finis Tasby Ft Kid Ramos-As The Years Go Passing By
TTITLE9=Mitch Kashmar-Ft Junior Watson-Getting Drunk
TTITLE10=Mannish Boys Ft Finis Tasby, Johnny Dyer and Hook Herrera-Sun Is Shining
TTITLE11=Hollywood Blue Flames Ft Rick Holstrom-Nit Wit
TTITLE12=Mannish Boys-Mannish Boy
EXTD=YEAR: 2000
EXTT0=
EXTT1=
EXTT2=
EXTT3=
EXTT4=
EXTT5=
EXTT6=
EXTT7=
EXTT8=
EXTT9=
EXTT10=
EXTT11=
EXTT12=
PLAYORDER=
